<?xml version="1.0" standalone="no"?>
<!DOCTYPE svg PUBLIC "-//W3C//DTD SVG 20010904//EN"
 "http://www.w3.org/TR/2001/REC-SVG-20010904/DTD/svg10.dtd">
<svg version="1.0" xmlns="http://www.w3.org/2000/svg"
 width="512.000000pt" height="512.000000pt" viewBox="0 0 512.000000 512.000000"
 preserveAspectRatio="xMidYMid meet">
<metadata>
Created by potrace 1.14, written by Peter Selinger 2001-2017
</metadata>
<g transform="translate(0.000000,512.000000) scale(0.100000,-0.100000)"
fill="#000000" stroke="none">
<path d="M2036 5008 c11 -81 11 -337 0 -406 -4 -30 -14 -79 -23 -110 -8 -32
-16 -64 -18 -72 -8 -39 -80 -212 -128 -308 -68 -134 -259 -468 -466 -812 -11
-19 -26 -46 -33 -60 -6 -14 -17 -32 -24 -40 -6 -8 -25 -40 -41 -70 -16 -30
-62 -111 -100 -180 -172 -304 -269 -494 -316 -620 -171 -463 -124 -924 141
-1365 38 -63 157 -233 176 -250 6 -5 31 -35 56 -65 99 -120 285 -295 430 -406
92 -70 270 -188 275 -182 2 2 -9 46 -26 98 -80 252 -96 469 -54 710 10 57 57
196 92 270 86 185 268 403 431 519 l34 24 -15 -29 c-22 -44 -63 -178 -82 -274
-32 -158 -23 -399 20 -550 26 -87 95 -246 126 -290 56 -77 198 -88 352 -25
111 44 215 114 408 274 l29 24 -4 -119 c-2 -66 -7 -132 -11 -149 -28 -134 -70
-253 -131 -375 -24 -46 -42 -86 -40 -87 5 -6 111 41 171 76 72 41 96 59 177
132 35 31 110 94 168 140 122 97 369 340 458 451 224 278 370 596 408 888 12
99 11 304 -2 410 -40 308 -153 633 -327 935 -51 89 -179 285 -186 285 -3 0 -6
-62 -5 -137 2 -225 -25 -409 -91 -638 -45 -155 -158 -414 -216 -497 -11 -14
-19 -29 -19 -32 0 -26 -243 -350 -305 -406 l-28 -25 28 45 c58 93 116 289 141
475 3 28 8 59 10 70 10 52 18 239 18 420 1 591 -53 890 -219 1229 -106 214
-240 400 -425 587 -224 226 -434 380 -723 530 l-99 50 8 -63z"/>
</g>
</svg>
